<?xml version="1.0" standalone="no"?>
<!DOCTYPE svg PUBLIC "-//W3C//DTD SVG 20010904//EN"
 "http://www.w3.org/TR/2001/REC-SVG-20010904/DTD/svg10.dtd">
<svg version="1.0" xmlns="http://www.w3.org/2000/svg"
 width="490.000000pt" height="490.000000pt" viewBox="0 0 490.000000 490.000000"
 preserveAspectRatio="xMidYMid meet">
<metadata>
Created by potrace 1.11, written by Peter Selinger 2001-2013
</metadata>
<g transform="translate(0.000000,490.000000) scale(0.100000,-0.100000)"
fill="#000000" stroke="none">
<path d="M0 2445 l0 -1805 2450 0 2450 0 0 1805 0 1805 -2450 0 -2450 0 0
-1805z m2000 1520 c0 -8 -4 -15 -10 -15 -5 0 -10 7 -10 15 0 8 5 15 10 15 6 0
10 -7 10 -15z m1057 -17 c-3 -7 -5 -2 -5 12 0 14 2 19 5 13 2 -7 2 -19 0 -25z
m-1461 -85 c-11 -11 -17 4 -9 23 7 18 8 18 11 1 2 -10 1 -21 -2 -24z m409 27
c8 -13 -13 -50 -28 -49 -8 0 -8 2 -1 5 6 3 9 16 6 29 -4 25 11 35 23 15z m242
-6 c5 -14 -24 -50 -32 -42 -11 11 4 60 17 56 7 -3 13 -9 15 -14z m1162 -46 c1
-5 -3 -8 -9 -8 -5 0 -10 12 -9 28 0 24 1 25 9 7 5 -11 9 -23 9 -27z m-1479
-43 c18 -21 -3 -68 -28 -63 -21 4 -28 44 -12 64 16 18 24 18 40 -1z m90 -24
c0 -20 -19 -41 -36 -41 -19 0 -24 49 -6 59 21 12 42 3 42 -18z m1137 7 c-3 -8
-6 -5 -6 6 -1 11 2 17 5 13 3 -3 4 -12 1 -19z m83 -23 c0 -16 -6 -25 -15 -25
-9 0 -15 9 -15 25 0 16 6 25 15 25 9 0 15 -9 15 -25z m-1005 -31 c-5 -30 -3
-34 15 -34 11 0 20 -7 20 -15 0 -8 7 -15 15 -15 8 0 15 5 15 11 0 19 54 5 65
-18 15 -30 40 -14 31 20 -6 26 7 46 19 27 3 -5 8 -38 10 -72 3 -67 16 -111 39
-134 18 -18 26 -18 26 0 0 7 6 19 14 25 11 9 15 8 20 -6 6 -15 9 -14 19 7 16
32 47 38 54 11 3 -12 12 -21 19 -21 18 0 18 -36 0 -43 -7 -3 -16 -19 -19 -36
-7 -35 -30 -41 -59 -15 -14 14 -20 14 -33 4 -8 -7 -21 -10 -29 -7 -8 3 -22 -5
-32 -19 -23 -30 -50 -31 -58 -1 -6 20 -7 20 -17 5 -5 -10 -16 -18 -24 -18 -8
0 -17 -5 -21 -12 -4 -7 -3 -8 5 -4 16 10 25 -19 13 -41 -10 -16 -12 -15 -21
10 -9 23 -15 27 -34 21 -12 -3 -28 -11 -34 -16 -7 -6 -21 -7 -30 -3 -10 5 -54
9 -98 10 -80 3 -80 3 -109 -31 -23 -28 -26 -37 -16 -49 7 -8 21 -15 31 -15 16
0 17 -4 9 -25 -6 -15 -6 -26 1 -30 5 -4 7 -10 4 -15 -9 -14 11 -20 43 -14 19
4 34 15 41 31 11 25 12 25 31 8 24 -21 26 -45 5 -45 -20 0 -8 -28 16 -35 30
-10 22 -25 -13 -25 l-33 -1 25 -14 c50 -29 136 -10 160 35 6 11 16 20 22 20
12 0 6 -108 -8 -144 -6 -16 -5 -17 14 -5 12 7 25 32 32 58 18 69 28 91 44 91
22 0 27 -14 31 -85 2 -35 7 -70 11 -77 16 -23 10 -92 -8 -106 -9 -6 -19 -26
-23 -42 -7 -32 -25 -39 -43 -17 -6 7 -27 19 -47 27 -31 12 -35 17 -30 39 5 19
1 30 -17 44 l-23 19 30 -6 c17 -3 24 -3 18 0 -7 3 -13 12 -13 20 0 16 -16 19
-25 4 -3 -5 -12 -7 -19 -4 -8 3 -17 1 -20 -4 -3 -6 1 -12 8 -15 13 -5 13 -12
-1 -46 -16 -41 -30 -50 -49 -31 -7 7 -14 3 -22 -15 -9 -19 -9 -25 1 -25 16 0
20 -49 6 -67 -8 -8 -9 -32 -5 -66 l7 -52 -19 28 c-14 21 -22 25 -27 16 -10
-16 -35 16 -35 44 0 11 -15 43 -34 72 -19 28 -38 63 -41 78 -4 14 -13 31 -19
36 -10 8 -12 -2 -10 -47 6 -116 56 -234 105 -251 16 -5 29 -16 29 -24 0 -8 16
-35 35 -60 40 -52 44 -67 15 -60 -11 3 -20 0 -20 -6 0 -6 9 -11 21 -11 12 0
19 -5 16 -12 -2 -7 -16 -12 -30 -10 -18 2 -27 -3 -32 -18 -3 -11 -4 -24 -1
-28 4 -7 15 -112 19 -187 1 -16 6 -33 11 -37 14 -10 -16 -33 -42 -33 -13 0
-26 6 -30 12 -4 6 -18 13 -32 14 -23 4 -24 8 -21 53 2 37 -1 47 -11 44 -7 -3
-12 -14 -11 -26 3 -26 -21 -45 -47 -37 -24 8 -28 66 -6 84 11 9 13 29 9 84 -3
40 -1 89 5 109 9 32 8 38 -10 50 -12 8 -22 25 -24 39 -3 31 -32 99 -42 99 -4
0 -8 -19 -9 -43 -3 -47 -46 -254 -56 -263 -3 -3 -10 -3 -15 0 -13 8 -35 93
-29 110 8 20 -11 86 -24 83 -6 -1 -29 -20 -51 -41 -41 -39 -41 -39 -50 -16 -5
13 -15 28 -22 34 -8 6 -17 25 -21 41 l-8 30 -9 -33 c-6 -23 -5 -38 2 -47 8
-10 7 -16 -5 -23 -13 -6 -17 -26 -19 -77 -1 -43 -7 -70 -14 -73 -16 -5 -27 25
-14 41 7 8 6 18 -4 31 -8 11 -14 31 -14 44 0 24 -1 24 -18 9 -10 -10 -24 -17
-30 -17 -7 0 -25 -28 -42 -63 -32 -67 -73 -112 -93 -100 -6 4 -31 8 -55 10
-24 1 -50 7 -58 14 -11 9 -17 9 -28 0 -9 -7 -17 -8 -20 -2 -3 5 9 21 26 35 18
15 44 36 56 46 13 11 30 20 38 20 8 0 15 8 15 18 3 37 9 79 18 122 7 36 16
430 12 530 -1 14 -2 37 -3 53 -1 33 10 47 22 27 5 -8 6 -46 3 -85 -4 -38 -7
-81 -7 -95 1 -14 2 -101 4 -193 2 -136 5 -170 17 -174 7 -3 22 2 31 11 45 45
86 75 108 80 13 4 43 20 66 36 24 16 77 39 118 50 41 12 80 26 85 30 6 4 24
11 42 14 17 4 37 14 44 22 19 23 4 188 -25 275 -14 43 -27 109 -30 159 -5 69
-10 88 -27 102 -12 10 -19 26 -17 39 6 42 25 30 53 -33 15 -35 34 -67 41 -71
21 -12 18 -49 -3 -45 -15 2 -18 -4 -16 -32 1 -19 6 -36 12 -38 6 -2 11 -23 11
-46 0 -30 6 -48 20 -61 11 -10 20 -23 20 -29 1 -6 9 -29 19 -50 11 -22 16 -46
13 -54 -4 -11 0 -14 16 -10 11 3 30 -1 41 -9 12 -8 34 -13 49 -11 27 3 27 3
-11 21 -62 30 -100 112 -98 210 0 27 -6 58 -13 70 -8 12 -17 49 -20 82 -3 33
-11 92 -17 130 -24 159 -26 291 -3 231 9 -24 44 -30 58 -10 13 17 25 16 59 -8
24 -18 47 -2 72 50 11 23 22 41 25 42 3 0 14 -13 23 -30 15 -25 21 -28 37 -18
10 6 21 25 24 41 4 17 10 26 17 22 6 -5 8 -21 4 -41z m825 21 c0 -14 -4 -25
-10 -25 -5 0 -10 11 -10 25 0 14 5 25 10 25 6 0 10 -11 10 -25z m344 10 c-4
-8 -8 -15 -10 -15 -2 0 -4 7 -4 15 0 8 4 15 10 15 5 0 7 -7 4 -15z m196 -15
c0 -5 -7 -10 -15 -10 -8 0 -15 5 -15 10 0 6 7 10 15 10 8 0 15 -4 15 -10z
m-440 -35 c0 -19 -4 -35 -10 -35 -11 0 -14 53 -3 63 11 12 13 8 13 -28z
m-1480 -1 c0 -8 -4 -14 -10 -14 -5 0 -10 9 -10 21 0 11 5 17 10 14 6 -3 10
-13 10 -21z m1640 0 c0 -8 -7 -14 -15 -14 -15 0 -21 21 -9 33 10 9 24 -2 24
-19z m-820 -34 c0 -10 -4 -22 -10 -25 -6 -4 -10 7 -10 25 0 18 4 29 10 25 6
-3 10 -15 10 -25z m-890 -11 c0 -24 -23 -21 -28 4 -2 10 3 17 12 17 10 0 16
-9 16 -21z m1630 12 c0 -17 -12 -41 -21 -41 -5 0 -9 11 -9 25 0 16 6 25 15 25
8 0 15 -4 15 -9z m-1935 -11 c3 -5 3 -15 -1 -21 -6 -11 -23 6 -24 24 0 10 18
9 25 -3z m2105 0 c0 -5 -4 -10 -10 -10 -5 0 -10 5 -10 10 0 6 5 10 10 10 6 0
10 -4 10 -10z m194 -5 c7 -20 -4 -47 -18 -42 -17 6 -20 57 -3 57 8 0 17 -7 21
-15z m186 -10 c0 -8 -4 -15 -10 -15 -5 0 -10 7 -10 15 0 8 5 15 10 15 6 0 10
-7 10 -15z m-1203 -11 c9 -25 -13 -40 -26 -16 -10 19 -6 32 11 32 5 0 11 -7
15 -16z m723 -11 c0 -20 -3 -24 -11 -16 -7 7 -9 19 -6 27 10 24 17 19 17 -11z
m180 -20 c0 -13 -4 -23 -9 -23 -13 0 -22 30 -15 53 5 16 8 17 15 6 5 -8 9 -24
9 -36z m-80 21 c0 -8 -4 -12 -10 -9 -5 3 -10 10 -10 16 0 5 5 9 10 9 6 0 10
-7 10 -16z m-1580 -13 c0 -6 -4 -13 -10 -16 -5 -3 -10 1 -10 9 0 9 5 16 10 16
6 0 10 -4 10 -9z m1840 -10 c0 -6 -4 -13 -10 -16 -5 -3 -10 1 -10 9 0 9 5 16
10 16 6 0 10 -4 10 -9z m-2075 -52 c-6 -19 -9 -20 -16 -6 -11 20 0 52 13 39 6
-6 7 -20 3 -33z m1088 19 c6 -23 -12 -43 -25 -30 -9 9 1 52 12 52 4 0 10 -10
13 -22z m-1173 -29 c-6 -10 -15 -19 -21 -19 -6 0 -8 3 -6 8 2 4 7 15 10 25 4
10 11 15 17 12 7 -4 7 -13 0 -26z m255 -8 c-3 -12 -13 -21 -21 -21 -17 0 -19
31 -2 48 17 17 32 -1 23 -27z m1316 -4 c3 -21 2 -40 -2 -43 -5 -3 -3 -13 3
-24 9 -14 9 -25 0 -44 -14 -32 -32 -34 -32 -3 -1 12 -3 53 -6 90 -5 63 -4 69
12 65 13 -2 21 -15 25 -41z m337 4 c3 -27 0 -32 -15 -29 -19 3 -28 30 -19 54
10 26 31 10 34 -25z m178 -19 c-4 -3 -11 -1 -18 6 -8 8 -8 15 3 28 13 16 14
16 17 -5 2 -13 1 -25 -2 -29z m330 21 c-10 -10 -19 5 -10 18 6 11 8 11 12 0 2
-7 1 -15 -2 -18z m-603 -4 c3 -12 1 -29 -6 -40 -11 -17 -12 -17 -24 1 -11 15
-11 25 -3 40 14 26 26 25 33 -1z m-1923 -15 c0 -8 -4 -14 -10 -14 -5 0 -10 9
-10 21 0 11 5 17 10 14 6 -3 10 -13 10 -21z m273 -5 c-4 -13 -9 -17 -16 -10
-12 12 -1 45 12 37 5 -3 7 -15 4 -27z m143 -16 c-11 -11 -19 6 -11 24 8 17 8
17 12 0 3 -10 2 -21 -1 -24z m1355 -15 c1 -29 3 -87 4 -128 3 -83 -4 -110 -23
-88 -6 8 -11 47 -11 88 0 41 0 89 -1 105 0 41 8 75 20 75 6 0 11 -24 11 -52z
m319 38 c0 -8 -4 -18 -10 -21 -5 -3 -10 3 -10 14 0 12 5 21 10 21 6 0 10 -6
10 -14z m177 -18 c-3 -7 -5 -2 -5 12 0 14 2 19 5 13 2 -7 2 -19 0 -25z m-977
-12 c0 -16 -18 -31 -27 -22 -8 8 5 36 17 36 5 0 10 -6 10 -14z m-1083 -22 c3
-8 0 -27 -7 -42 l-13 -27 -9 28 c-11 30 -5 57 12 57 6 0 13 -7 17 -16z m60
-66 c-3 -20 -4 -21 -11 -5 -5 9 -5 29 0 45 7 25 8 26 11 5 3 -13 3 -33 0 -45z
m1654 0 c0 -35 1 -105 1 -155 0 -51 4 -93 9 -93 11 0 12 -54 2 -64 -9 -9 -11
-196 -2 -196 9 0 -2 -104 -12 -114 -6 -6 -14 -3 -22 8 -9 13 -13 45 -11 105 3
77 3 127 1 241 -1 19 0 60 2 90 1 30 -1 70 -4 88 -5 20 -3 38 5 47 6 8 9 19 5
25 -9 15 3 80 15 80 5 0 10 -28 11 -62z m97 33 c4 -28 -8 -43 -27 -32 -9 6
-11 18 -7 36 8 31 30 28 34 -4z m77 10 c7 -22 -3 -71 -15 -71 -10 0 -20 26
-20 54 0 38 24 50 35 17z m115 -2 c15 -27 6 -49 -20 -49 -15 0 -20 7 -20 28 0
46 21 57 40 21z m-2519 -22 c-8 -8 -11 -7 -11 4 0 20 13 34 18 19 3 -7 -1 -17
-7 -23z m2586 -108 c-3 -145 -21 -163 -25 -24 -3 113 5 179 18 154 5 -8 8 -67
7 -130z m343 137 c0 -3 -4 -8 -10 -11 -5 -3 -10 -1 -10 4 0 6 5 11 10 11 6 0
10 -2 10 -4z m-2840 -46 c0 -5 -4 -10 -10 -10 -5 0 -10 5 -10 10 0 6 5 10 10
10 6 0 10 -4 10 -10z m412 -67 l-10 -28 -7 27 c-8 31 2 55 17 40 7 -7 7 -20 0
-39z m91 -10 c3 -16 1 -33 -5 -40 -6 -7 -7 -40 -4 -80 6 -69 7 -127 2 -173 -2
-14 -4 -33 -4 -42 -1 -10 -6 -18 -11 -18 -13 0 -20 137 -11 229 5 46 5 91 1
100 -10 19 5 65 18 57 5 -3 11 -18 14 -33z m137 0 c0 -26 -3 -34 -11 -26 -9 9
-3 63 7 63 2 0 4 -17 4 -37z m603 15 c4 -12 1 -28 -6 -36 -9 -12 -13 -9 -19
14 -4 15 -5 31 -2 36 9 15 22 8 27 -14z m1002 -18 c0 -28 -4 -35 -20 -35 -13
0 -21 8 -23 23 -5 34 5 54 25 50 13 -2 18 -13 18 -38z m69 -15 c-4 -8 -10 -12
-15 -9 -11 6 -12 48 -2 58 10 10 24 -31 17 -49z m-2391 20 c-7 -21 -13 -19
-13 6 0 11 4 18 10 14 5 -3 7 -12 3 -20z m291 -53 c-9 -93 -22 -99 -22 -11 0
79 4 93 19 83 5 -3 7 -33 3 -72z m2214 46 c-4 -46 -28 -49 -28 -4 0 26 4 36
16 36 11 0 14 -8 12 -32z m-2598 1 c0 -24 -23 -21 -28 4 -2 10 3 17 12 17 10
0 16 -9 16 -21z m598 -92 c2 -26 -1 -37 -10 -37 -33 0 -50 44 -26 68 20 20 33
8 36 -31z m2342 2 c0 -20 -4 -29 -12 -27 -15 5 -22 33 -14 54 9 24 26 6 26
-27z m-2432 -7 c3 -27 0 -32 -17 -32 -17 0 -21 6 -21 36 0 28 3 35 18 32 11
-2 18 -14 20 -36z m248 14 c8 -34 1 -61 -16 -61 -22 0 -37 50 -20 69 18 22 29
20 36 -8z m1656 2 c7 -19 -6 -61 -20 -66 -8 -2 -12 9 -12 37 0 28 4 41 14 41
8 0 16 -6 18 -12z m411 -35 c-3 -7 -9 -13 -14 -13 -11 0 -12 44 -2 54 9 9 22
-25 16 -41z m197 27 c0 -11 -7 -20 -15 -20 -8 0 -15 9 -15 20 0 11 7 20 15 20
8 0 15 -9 15 -20z m160 16 c0 -3 -4 -8 -10 -11 -5 -3 -10 -1 -10 4 0 6 5 11
10 11 6 0 10 -2 10 -4z m-310 -21 c0 -8 -4 -15 -10 -15 -5 0 -10 7 -10 15 0 8
5 15 10 15 6 0 10 -7 10 -15z m210 -6 c0 -5 -4 -9 -10 -9 -5 0 -10 7 -10 16 0
8 5 12 10 9 6 -3 10 -10 10 -16z m-2985 -29 c-3 -6 -10 -10 -16 -10 -10 0 -12
33 -2 44 9 9 26 -22 18 -34z m-265 15 c0 -8 -4 -15 -10 -15 -5 0 -10 7 -10 15
0 8 5 15 10 15 6 0 10 -7 10 -15z m2782 1 c11 -16 -3 -36 -27 -36 -24 0 -35
16 -28 37 5 14 45 13 55 -1z m-552 -12 c0 -8 -5 -12 -10 -9 -6 4 -8 11 -5 16
9 14 15 11 15 -7z m-1475 -83 c-4 -17 -11 -29 -16 -25 -10 6 -12 57 -2 68 14
13 25 -13 18 -43z m2287 3 c-2 -13 -8 -24 -13 -24 -10 0 -12 53 -2 63 11 12
20 -12 15 -39z m-965 4 c-3 -7 -5 -2 -5 12 0 14 2 19 5 13 2 -7 2 -19 0 -25z
m768 12 c9 -27 -3 -60 -21 -60 -10 0 -14 12 -14 40 0 43 23 57 35 20z m-66
-25 c3 -17 -22 -45 -41 -45 -13 0 -9 45 4 58 16 16 32 10 37 -13z m-459 -5 c0
-5 -5 -10 -11 -10 -5 0 -7 5 -4 10 3 6 8 10 11 10 2 0 4 -4 4 -10z m-1324 -55
c3 -14 3 -35 0 -48 -4 -12 -9 -42 -12 -67 -3 -25 -8 -47 -10 -50 -13 -12 -24
30 -19 67 3 23 2 51 -4 61 -7 14 -6 25 5 40 20 29 32 28 40 -3z m1335 15 c22
-13 25 -43 5 -59 -12 -10 -17 -8 -25 8 -12 21 -15 61 -5 61 3 0 14 -5 25 -10z
m333 -103 c-6 -64 -10 -77 -23 -75 -13 3 -16 19 -18 83 -3 101 1 115 27 89 18
-17 19 -28 14 -97z m177 41 c0 -35 2 -95 4 -134 3 -78 -2 -98 -25 -84 -12 8
-13 15 -3 41 10 25 9 35 -2 53 -10 15 -12 31 -6 57 4 19 6 50 3 67 -5 36 2 62
18 62 6 0 10 -27 11 -62z m-2173 6 c-5 -42 -28 -43 -28 -1 0 18 3 37 7 41 12
12 25 -11 21 -40z m106 22 c9 -35 -3 -58 -28 -54 -21 3 -33 36 -22 64 9 23 43
17 50 -10z m2336 7 c0 -10 -4 -25 -10 -33 -8 -12 -10 -12 -16 3 -7 20 1 47 16
47 5 0 10 -8 10 -17z m-3020 -13 c0 -11 -4 -20 -10 -20 -5 0 -10 9 -10 20 0
11 5 20 10 20 6 0 10 -9 10 -20z m836 5 c8 -19 -9 -68 -24 -73 -8 -2 -12 11
-12 42 0 35 4 46 15 46 9 0 18 -7 21 -15z m-471 -35 c-5 -15 -10 -19 -17 -12
-5 5 -7 20 -3 32 5 15 10 19 17 12 5 -5 7 -20 3 -32z m2325 5 c0 -38 -17 -52
-47 -41 -12 5 -14 9 -5 18 7 7 12 22 12 35 0 16 6 23 20 23 16 0 20 -7 20 -35z
m178 3 c-3 -34 -20 -42 -26 -13 -5 22 5 45 18 45 7 0 10 -14 8 -32z m-2958 -2
c0 -8 -4 -17 -9 -21 -12 -7 -24 12 -16 25 9 15 25 12 25 -4z m2080 -63 c0 -20
-3 -24 -11 -16 -7 7 -9 19 -6 27 10 24 17 19 17 -11z m1103 -18 c3 -16 0 -24
-7 -22 -14 4 -21 47 -8 47 5 0 12 -11 15 -25z m-2847 -22 c-11 -11 -19 6 -11
24 8 17 8 17 12 0 3 -10 2 -21 -1 -24z m2249 18 c8 -27 -5 -71 -21 -71 -10 0
-14 12 -14 38 0 52 22 73 35 33z m761 -8 c-10 -10 -19 5 -10 18 6 11 8 11 12
0 2 -7 1 -15 -2 -18z m99 18 c3 -5 1 -12 -5 -16 -5 -3 -10 1 -10 9 0 18 6 21
15 7z m-3285 -13 c0 -7 -5 -20 -10 -28 -8 -12 -10 -9 -10 13 0 15 5 27 10 27
6 0 10 -6 10 -12z m2620 -35 c0 -27 -4 -34 -17 -31 -18 3 -29 38 -19 64 10 26
36 3 36 -33z m-2530 17 c0 -11 -4 -20 -10 -20 -5 0 -10 9 -10 20 0 11 5 20 10
20 6 0 10 -9 10 -20z m2145 -50 c3 -6 -1 -13 -10 -16 -19 -8 -30 0 -20 15 8
14 22 14 30 1z m-1639 -23 c7 -19 -14 -69 -26 -62 -17 10 -12 75 5 75 9 0 18
-6 21 -13z m744 -38 c0 -43 -3 -50 -17 -47 -10 2 -19 13 -21 26 -2 14 -10 22
-23 22 -26 0 -24 29 4 40 49 20 57 14 57 -41z m-1510 7 c0 -3 -4 -8 -10 -11
-5 -3 -10 -1 -10 4 0 6 5 11 10 11 6 0 10 -2 10 -4z m2851 -43 c1 -5 3 -38 4
-75 3 -62 -4 -83 -20 -58 -7 12 -14 111 -8 128 6 13 22 17 24 5z m-2379 -59
c-2 -10 -3 -27 -3 -36 0 -10 -2 -18 -5 -18 -9 0 -25 54 -19 68 7 20 31 8 27
-14z m2508 -9 c0 -43 -25 -48 -33 -8 -6 32 -1 43 19 43 9 0 14 -11 14 -35z
m-1380 15 c0 -5 -4 -10 -9 -10 -6 0 -13 5 -16 10 -3 6 1 10 9 10 9 0 16 -4 16
-10z m7 -66 c8 -20 -19 -46 -49 -48 -18 -1 -24 -8 -28 -35 -6 -40 -21 -49 -44
-26 -18 18 -22 95 -6 111 6 6 35 11 66 12 41 1 56 -2 61 -14z m-1267 -14 c0
-11 -4 -20 -10 -20 -5 0 -10 9 -10 20 0 11 5 20 10 20 6 0 10 -9 10 -20z
m3120 10 c0 -5 -4 -10 -10 -10 -5 0 -10 5 -10 10 0 6 5 10 10 10 6 0 10 -4 10
-10z m-255 -40 c0 -36 -29 -33 -33 3 -3 23 0 28 15 25 12 -2 18 -12 18 -28z
m397 -12 c-5 -21 -6 -21 -12 -2 -8 21 -3 37 10 29 4 -3 6 -15 2 -27z m-3332
-9 c0 -38 -24 -35 -28 4 -2 19 1 27 12 27 11 0 16 -10 16 -31z m-273 -11 c-3
-7 -5 -2 -5 12 0 14 2 19 5 13 2 -7 2 -19 0 -25z m1592 -65 c-1 -16 2 -40 6
-55 6 -24 4 -28 -12 -28 -15 0 -23 11 -32 41 -11 36 -10 42 6 55 26 20 32 17
32 -13z m-69 -15 c0 -7 -5 -20 -10 -28 -9 -13 -11 -13 -19 0 -6 9 -6 19 1 27
13 17 28 17 28 1z m2077 -10 c-3 -8 -6 -5 -6 6 -1 11 2 17 5 13 3 -3 4 -12 1
-19z m-2759 -117 c8 -4 14 -12 14 -16 0 -8 -22 -25 -34 -25 -5 0 -8 11 -8 25
0 26 6 30 28 16z m189 -17 c-3 -3 -12 -4 -19 -1 -8 3 -5 6 6 6 11 1 17 -2 13
-5z m2175 -51 c7 -25 -1 -43 -18 -43 -10 0 -14 10 -12 30 2 32 23 41 30 13z
m-2933 -55 c1 -5 -3 -8 -8 -8 -12 0 -22 30 -14 43 6 10 20 -13 22 -35z m768
26 c2 -5 -3 -19 -11 -29 -14 -20 -15 -20 -22 -1 -5 12 -3 21 4 24 7 2 9 8 6
14 -4 6 -1 9 6 6 8 -2 15 -9 17 -14z m-683 -3 c3 -5 -2 -23 -10 -41 -12 -23
-13 -35 -5 -43 13 -13 14 -27 2 -27 -5 0 -12 8 -14 18 -4 14 -6 14 -12 -5 -4
-13 -11 -23 -15 -23 -12 0 -6 46 7 62 6 7 14 25 18 41 7 27 19 35 29 18z m62
-14 c16 -15 23 -29 18 -40 -6 -17 -7 -16 -20 0 -7 10 -14 14 -14 8 -1 -17 -20
19 -20 38 0 23 6 22 36 -6z m144 -23 c0 -8 -4 -14 -10 -14 -5 0 -10 9 -10 21
0 11 5 17 10 14 6 -3 10 -13 10 -21z m1027 -16 c-3 -8 -6 -5 -6 6 -1 11 2 17
5 13 3 -3 4 -12 1 -19z m-841 -25 c-10 -10 -19 5 -10 18 6 11 8 11 12 0 2 -7
1 -15 -2 -18z m-337 -9 c3 -16 1 -17 -13 -5 -19 16 -21 34 -3 29 6 -3 14 -13
16 -24z m61 -4 c0 -5 -4 -10 -10 -10 -5 0 -10 5 -10 10 0 6 5 10 10 10 6 0 10
-4 10 -10z m93 -35 c-3 -42 -12 -60 -23 -49 -13 13 0 86 14 81 6 -2 10 -17 9
-32z m2887 19 c0 -8 -5 -12 -10 -9 -6 4 -8 11 -5 16 9 14 15 11 15 -7z m-3060
-88 c-1 -28 -17 -37 -54 -31 -29 6 -36 12 -36 31 0 13 -4 24 -10 24 -5 0 -7 7
-3 15 6 17 10 17 13 0 6 -31 21 -44 43 -36 18 7 21 15 19 42 l-2 34 15 -34 c8
-18 15 -38 15 -45z m-149 15 c-22 -14 -16 -58 13 -95 30 -40 32 -46 10 -46
-18 0 -53 38 -54 60 0 11 -3 11 -12 2 -7 -7 -21 -12 -32 -12 -20 0 -20 1 2 16
12 8 22 24 22 34 0 23 26 50 48 50 14 0 14 -2 3 -9z m335 -47 c8 -30 -2 -57
-19 -52 -16 6 -32 51 -24 72 9 22 36 9 43 -20z m192 -98 c5 -41 -15 -56 -28
-22 -15 40 -13 58 8 54 10 -2 18 -14 20 -32z m-298 5 c14 -28 12 -51 -5 -51
-18 0 -38 37 -31 56 8 20 23 17 36 -5z m-356 -23 c-3 -4 -12 -8 -20 -8 -12 0
-12 4 -2 20 8 13 15 16 19 8 4 -7 5 -16 3 -20z m1054 -14 c-5 -42 -28 -43 -28
-1 0 18 3 37 7 41 12 12 25 -11 21 -40z m350 34 c7 -7 12 -25 12 -40 0 -23 -4
-28 -25 -28 -22 0 -25 4 -25 40 0 41 14 52 38 28z m-1483 -17 c7 -12 -32 -34
-45 -26 -5 3 -7 12 -3 20 6 17 39 20 48 6z m445 -101 c0 -36 -24 -50 -47 -28
-19 20 -1 58 27 58 16 0 20 -7 20 -30z m-470 -90 c0 -5 -5 -10 -11 -10 -5 0
-7 5 -4 10 3 6 8 10 11 10 2 0 4 -4 4 -10z m1500 -40 c0 -20 -5 -30 -15 -30
-15 0 -21 40 -8 53 14 15 23 6 23 -23z m-1500 -2 c0 -16 -3 -19 -11 -11 -6 6
-8 16 -5 22 11 17 16 13 16 -11z m1160 1 c-7 -11 -14 -19 -16 -16 -7 7 7 37
17 37 6 0 5 -9 -1 -21z m59 -528 c28 -26 31 -35 31 -90 l0 -61 -49 0 -50 0 -3
53 c-2 38 -7 52 -18 52 -12 0 -15 -22 -18 -129 -2 -83 1 -133 8 -140 16 -16
30 12 30 62 l0 42 50 0 50 0 0 -56 c0 -50 -3 -59 -34 -90 -29 -29 -41 -34 -80
-34 -53 0 -100 20 -116 49 -13 25 -13 296 0 321 16 31 60 49 116 50 44 0 57
-5 83 -29z m274 0 c20 -20 22 -33 25 -165 4 -191 -13 -226 -113 -226 -97 0
-115 34 -115 212 0 143 8 173 50 196 38 20 126 10 153 -17z m-1083 -21 c0 -39
-1 -40 -35 -40 l-35 0 0 -160 0 -160 -50 0 -50 0 0 160 0 160 -30 0 c-28 0
-30 2 -30 40 l0 40 115 0 115 0 0 -40z m120 -35 c0 -68 2 -75 20 -75 18 0 20
7 20 75 l0 75 50 0 50 0 0 -200 0 -200 -50 0 -50 0 0 85 c0 78 -2 85 -20 85
-18 0 -20 -7 -20 -85 l0 -85 -50 0 -50 0 0 200 0 200 50 0 50 0 0 -75z m350
35 c0 -39 -1 -40 -35 -40 -33 0 -35 -2 -35 -35 0 -33 2 -35 35 -35 34 0 35 -1
35 -40 0 -39 -1 -40 -35 -40 -35 0 -35 0 -35 -45 l0 -45 40 0 40 0 0 -40 0
-40 -90 0 -90 0 0 200 0 200 85 0 85 0 0 -40z m895 15 c24 -24 25 -28 25 -180
0 -198 2 -195 -140 -195 l-100 0 0 200 0 200 95 0 c88 0 98 -2 120 -25z m235
-15 c0 -39 -1 -40 -35 -40 -33 0 -35 -2 -35 -35 0 -33 2 -35 35 -35 34 0 35
-1 35 -40 0 -39 -1 -40 -35 -40 -35 0 -35 0 -35 -45 l0 -45 40 0 40 0 0 -40 0
-40 -90 0 -90 0 0 200 0 200 85 0 85 0 0 -40z m260 -142 c0 -216 -1 -218 -92
-218 l-58 0 0 33 c0 24 6 35 23 42 21 10 22 15 25 168 l3 157 49 0 50 0 0
-182z m210 142 c0 -39 -1 -40 -35 -40 -33 0 -35 -2 -35 -35 0 -33 2 -35 35
-35 34 0 35 -1 35 -40 0 -39 -1 -40 -35 -40 -35 0 -35 0 -35 -45 l0 -45 40 0
40 0 0 -40 0 -40 -90 0 -90 0 0 200 0 200 85 0 85 0 0 -40z m245 15 c21 -20
25 -34 25 -80 0 -40 -5 -60 -19 -74 -18 -18 -18 -18 0 -30 16 -9 19 -24 19
-101 l0 -90 -50 0 -50 0 0 74 c0 77 -6 106 -21 106 -5 0 -9 -40 -9 -90 l0 -90
-50 0 -50 0 0 200 0 200 90 0 c83 0 93 -2 115 -25z m165 -47 l1 -73 31 73 31
72 47 0 48 0 -33 -92 -32 -91 18 -61 c11 -34 26 -82 34 -108 l14 -48 -54 0
-54 0 -24 78 -25 77 -1 -77 -1 -78 -50 0 -50 0 0 200 0 200 50 0 50 0 0 -72z
m-3495 -355 c-2 -10 -4 -27 -5 -38 -2 -17 -3 -16 -9 5 -4 14 -3 31 2 38 13 16
16 15 12 -5z m22 -35 c-2 -13 -4 -5 -4 17 -1 22 1 32 4 23 2 -10 2 -28 0 -40z
m-210 -5 c-3 -10 -5 -4 -5 12 0 17 2 24 5 18 2 -7 2 -21 0 -30z m89 9 c1 -18
1 -19 -3 -2 -6 27 -23 25 -24 -2 l-2 -23 -4 23 c-2 12 -8 22 -13 22 -5 0 -11
-10 -13 -22 -4 -19 -4 -18 -6 5 -1 26 2 28 32 25 25 -2 32 -8 33 -26z m62 -4
c-3 -37 -29 -46 -34 -13 -5 29 3 45 21 45 12 0 15 -8 13 -32z m89 -5 c-3 -10
-5 -4 -5 12 0 17 2 24 5 18 2 -7 2 -21 0 -30z m60 21 c3 -9 -3 -23 -16 -35
l-21 -20 0 36 c0 37 25 50 37 19z m88 6 c3 -6 -1 -7 -9 -4 -11 4 -16 0 -16
-11 0 -12 5 -15 18 -10 14 5 15 4 5 -6 -17 -17 -38 3 -30 25 7 18 23 21 32 6z
m52 -6 c8 -21 -13 -42 -28 -27 -13 13 -5 43 11 43 6 0 13 -7 17 -16z m89 -12
c1 -18 1 -19 -3 -2 -6 27 -23 25 -24 -2 l-2 -23 -4 23 c-2 12 -8 22 -13 22 -5
0 -11 -10 -13 -22 -4 -19 -4 -18 -6 5 -1 26 2 28 32 25 25 -2 32 -8 33 -26z"/>
<path d="M2526 3464 c-4 -9 -4 -19 -1 -22 2 -3 7 3 11 12 4 9 4 19 1 22 -2 3
-7 -3 -11 -12z"/>
<path d="M1996 3156 c3 -9 11 -16 16 -16 13 0 5 23 -10 28 -7 2 -10 -2 -6 -12z"/>
<path d="M1981 2636 c-8 -9 -12 -17 -10 -19 56 -32 59 -32 59 -12 0 8 -6 15
-14 15 -8 0 -16 7 -18 17 -3 15 -4 15 -17 -1z"/>
<path d="M2030 2576 c0 -2 7 -9 15 -16 9 -7 15 -8 15 -2 0 5 -7 12 -15 16 -8
3 -15 4 -15 2z"/>
<path d="M2081 2544 c0 -11 3 -14 6 -6 3 7 2 16 -1 19 -3 4 -6 -2 -5 -13z"/>
<path d="M2235 1089 c-10 -26 -1 -259 10 -259 14 0 19 250 6 263 -7 7 -12 5
-16 -4z"/>
<path d="M2500 961 c0 -72 4 -131 9 -131 25 0 32 33 29 141 -3 99 -5 114 -20
117 -16 3 -18 -8 -18 -127z"/>
<path d="M3460 1045 c0 -33 4 -45 13 -42 7 2 12 20 12 42 0 22 -5 40 -12 43
-9 2 -13 -10 -13 -43z"/>
<path d="M170 705 c0 -8 5 -15 10 -15 6 0 10 7 10 15 0 8 -4 15 -10 15 -5 0
-10 -7 -10 -15z"/>
<path d="M320 705 c0 -8 5 -15 10 -15 6 0 10 7 10 15 0 8 -4 15 -10 15 -5 0
-10 -7 -10 -15z"/>
<path d="M460 705 c0 -8 5 -15 10 -15 6 0 10 7 10 15 0 8 -4 15 -10 15 -5 0
-10 -7 -10 -15z"/>
</g>
</svg>
